/* XPM */
static char *_536926417941[] = {
/* columns rows colors chars-per-pixel */
"64 64 30 1 ",
"  c black",
". c #000008",
"X c #00000E",
"o c #00060E",
"O c #000614",
"+ c #000B19",
"@ c #350000",
"# c #350B19",
"$ c #35101F",
"% c #5F0000",
"& c #5F0600",
"* c #5F1019",
"= c #5F1424",
"- c #850600",
"; c #A90B00",
": c #A9141F",
"> c #A9181F",
", c #851824",
"< c #A91824",
"1 c #A91C24",
"2 c #CC1414",
"3 c #CC1814",
"4 c #CC1819",
"5 c #ED140E",
"6 c #ED1814",
"7 c #ED1C19",
"8 c #ED1C1F",
"9 c #CC1824",
"0 c #CC1C24",
"q c #ED1C24",
/* pixels */
"                                                                ",
"                                                                ",
"                                                                ",
"                                                                ",
"                                                                ",
"                                                                ",
"                                                                ",
"                                                                ",
"                                                                ",
"                                                                ",
"                                                                ",
"                                                                ",
"                                                                ",
"                                                                ",
"                                                                ",
"                                                                ",
"                                                                ",
"                                                                ",
"                                                                ",
"                                                                ",
"                                                                ",
"                                                                ",
"                                                                ",
"                                                                ",
"                                                                ",
"                                                                ",
"                                                                ",
"                                                                ",
"                                                                ",
"                                                                ",
"                                                                ",
"                                                                ",
"                                                                ",
"                                                                ",
"                                                                ",
"                                                                ",
"                                                                ",
"                                                                ",
"                                                                ",
"                                                                ",
"                          .*3@      o>qq4&                      ",
"                        .#0q6@     +06@.,8-                     ",
"                       #9qqq6@    X1q;  $q7%                    ",
"                      O>:0qq6@    $qq;  +qq;                    ",
"                         =qq6@    =q8-  +qq5                    ",
"                         $qq6@   X1q8-  +qq6@                   ",
"                         $qq6@   O0q8-  +qq7%                   ",
"                         $qq6@   O0q8-  +qq8-                   ",
"                         $qq6@   O0q8-  +qq8-                   ",
"                         $qq6@   O0q8-  +qq7%                   ",
"             +qqqqqq;    $qq6@   X1q8-  +qq6@                   ",
"             +qqqqqq;    $qq6@   .,q8-  +qq5                    ",
"                         $qq6@    $qq;  +qq;                    ",
"                   +     $qq6@    X1q;  +q7%                    ",
"                   +    .,qq8-     O06@.,8-                     ",
"                      O0qqqqqq8-    o<qq2&                      ",
"                                                                ",
"                                                                ",
"                                                                ",
"                                                                ",
"                                                                ",
"                                                                ",
"                                                                ",
"                                                                "
};
