/* XPM */
static char *_536926409752[] = {
/* columns rows colors chars-per-pixel */
"64 64 29 1 ",
"  c black",
". c #000008",
"X c #00000E",
"o c #00060E",
"O c #000614",
"+ c #000B19",
"@ c #350000",
"# c #350B19",
"$ c #35101F",
"% c #5F0000",
"& c #5F0600",
"* c #5F141F",
"= c #5F1424",
"- c #850600",
"; c #85141F",
": c #85181F",
"> c #A90B00",
", c #A91008",
"< c #A9181F",
"1 c #851824",
"2 c #A91C24",
"3 c #CC1008",
"4 c #CC140E",
"5 c #CC1414",
"6 c #ED140E",
"7 c #ED1C19",
"8 c #ED1C1F",
"9 c #CC1C24",
"0 c #ED1C24",
/* pixels */
"                                                                ",
"                                                                ",
"                                                                ",
"                                                                ",
"                                                                ",
"                                                                ",
"                                                                ",
"                                                                ",
"                                                                ",
"                                                                ",
"                                                                ",
"                                                                ",
"                                                                ",
"                                                                ",
"                                                                ",
"                                                                ",
"                                                                ",
"                                                                ",
"                                                                ",
"                                                                ",
"                                                                ",
"                                                                ",
"                                                                ",
"                                                                ",
"                                                                ",
"                                                                ",
"                                                                ",
"                                                                ",
"                                                                ",
"                                                                ",
"                                                                ",
"                                                                ",
"                                                                ",
"                                                                ",
"                                                                ",
"                                                                ",
"                                                                ",
"                                                                ",
"                                                                ",
"                                                                ",
"                                                                ",
"                                                                ",
"                               o;0005&                          ",
"                              #0000008>                         ",
"                             O900000008-                        ",
"                            .14@ .*00003                        ",
"                            O,     =0006                        ",
"                                   +0003                        ",
"                                   O908-                        ",
"                                   +006                         ",
"                                   =07%                         ",
"                                  X28-                          ",
"                                  $0>                           ",
"                   +0000008-     O9>                            ",
"                   +0000008-    X<>    O,                       ",
"                               .:>    .1>                       ",
"                               =00000008-                       ",
"                              $000000007%                       ",
"                             $0000000006                        ",
"                            +00000000003                        ",
"                                                                ",
"                                                                ",
"                                                                ",
"                                                                "
};
