/* XPM */
static char *_538302194506[] = {
/* columns rows colors chars-per-pixel */
"64 64 56 1 ",
"  c black",
". c #0D0000",
"X c #160000",
"o c #1C0000",
"O c #220000",
"+ c #260000",
"@ c #320000",
"# c #350000",
"$ c #380000",
"% c #3D0000",
"& c #400000",
"* c #450000",
"= c #4F0000",
"- c #530000",
"; c #550000",
": c #5A0000",
"> c #5D0000",
", c #620000",
"< c #660000",
"1 c #6A0000",
"2 c #6C0000",
"3 c #730000",
"4 c #770000",
"5 c #7D0000",
"6 c #830000",
"7 c #860000",
"8 c #890000",
"9 c #8F0000",
"0 c #920000",
"q c #970000",
"w c #9A0000",
"e c #9C0000",
"r c #A30000",
"t c #A50000",
"y c #AB0000",
"u c #AD0000",
"i c #B30000",
"p c #B40000",
"a c #BA0000",
"s c #BE0000",
"d c #C00000",
"f c #C70000",
"g c #C80000",
"h c #CD0000",
"j c #D00000",
"k c #D60000",
"l c #DA0000",
"z c #DF0000",
"x c #E00000",
"c c #E70000",
"v c #E90000",
"b c #EE0000",
"n c #F00000",
"m c #F50000",
"M c #FA0000",
"N c red",
/* pixels */
"                                                                ",
"                                                                ",
"                                                                ",
"                                                                ",
"                                                                ",
"                                                                ",
"                                                                ",
"                                                                ",
"                                                                ",
"                                                                ",
"                                                                ",
"                                                                ",
"                                                                ",
"                                                                ",
"                                                                ",
"                                                                ",
"                                                                ",
"                                                                ",
"                                                                ",
"                                                                ",
"                                                                ",
"                                                                ",
"                                                                ",
"                                                                ",
"                                                                ",
"          +tzmMvs<dOyNNN                              2bn1      ",
"         <cNv9&:ymNOohNM                         Xj   iNNi      ",
"        *bNv$    3MO sNN                         pn   eNNw      ",
"        fNNq      fO aNM                        wMn   ,NN>      ",
"       #MNN@         sNMqvMk$   ubNx1  ;gnNndo yNNNNv  nb       ",
"       4NNm          aNNi>MNi  aNp-nvo bN2<MNu  gNn    jh       ",
"       7NNm          sNN  bNg *NN* hNq zm9onNg  hNn    uy       ",
"       :NNN%         aNM  bNh 9NNNNNNa  otlmNg  gNn    88       ",
"        xNN0      .  sNN  nNh 8NN2     3vv&nNh  hNn             ",
"        6NNxo    %f  sNM  bNh >NNi    ObNw bNh  gNn   ;vb>      ",
"         wMNl5$=ev8 ohNN:=mNz+ jNM9&w3<NNi9NNj  sNM,y rNNy      ",
"          >svMMng:  yNNNckNNNs $gmMc7 .jMcedNv7 -zMx= :bb>      ",
"                                                                ",
"                                                                ",
"                                                                ",
"                                                                ",
"                                                                ",
"                                                                ",
"                                                                ",
"                                                                ",
"                                                                ",
"                                                                ",
"                                                                ",
"                                                                ",
"                                                                ",
"                                                                ",
"                                                                ",
"                                                                ",
"                                                                ",
"                                                                ",
"                                                                ",
"                                                                ",
"                                                                ",
"                                                                ",
"                                                                ",
"                                                                ",
"                                                                ",
"                                                                ",
"                                                                "
};
