/* XPM */
static char *_538578939884[] = {
/* columns rows colors chars-per-pixel */
"64 64 57 1 ",
"  c black",
". c #000008",
"X c #000608",
"o c #00000E",
"O c #00060E",
"+ c #000614",
"@ c #000B14",
"# c #000B19",
"$ c #350000",
"% c #350600",
"& c #35060E",
"* c #350B14",
"= c #350B19",
"- c #351014",
"; c #351019",
": c #35101F",
"> c #5F0000",
", c #5F0600",
"< c #5F0608",
"1 c #5F1019",
"2 c #5F1419",
"3 c #5F141F",
"4 c #5F1424",
"5 c #850600",
"6 c #850B00",
"7 c #850B08",
"8 c #85100E",
"9 c #851414",
"0 c #851419",
"q c #85141F",
"w c #85181F",
"e c #A90B00",
"r c #A90B08",
"t c #A91008",
"y c #A91019",
"u c #A91819",
"i c #A91C19",
"p c #A9181F",
"a c #851824",
"s c #A91824",
"d c #A91C24",
"f c #CC1008",
"g c #CC140E",
"h c #CC1414",
"j c #CC1814",
"k c #CC1819",
"l c #CC181F",
"z c #CC1C1F",
"x c #ED140E",
"c c #ED1814",
"v c #ED1819",
"b c #ED1C19",
"n c #ED181F",
"m c #ED1C1F",
"M c #CC1824",
"N c #CC1C24",
"B c #ED1C24",
/* pixels */
"                                                                ",
"                                                                ",
"                                                                ",
"                                                                ",
"                                                                ",
"                                                                ",
"                                                                ",
"                                                                ",
"                                                                ",
"                                                                ",
"                                                                ",
"                                                                ",
"                                                                ",
"                                                                ",
"                                                                ",
"                                                                ",
"                                                                ",
"                                                                ",
"                                                                ",
"                                                                ",
"                                                                ",
"                                                                ",
"                                                                ",
"                                                                ",
"                .*pb>                                           ",
"     &pNBBnr$;5 4NBb>                                           ",
"   osBg%  X3BBe  +Nb>                                ->         ",
"  odBe      #Be  +Nb>                               oi>         ",
" .aBx        4f  +Nb>                               :b>         ",
" #Bm5        +t  +Nb>                              :Bb>         ",
" 4Bc$            +Nb>=MBv5     *sBBv5    OqNBBk5 .wBBBBBf       ",
"odBx             +Nby5 =Nb>   :b, Odme  odc, =Bm5  odb>         ",
"+NBx             +Nb>  .am5  +z5   #Bc$ :Bf  .aBe  odb>         ",
"+NBf             +Nb>  .aBe  4c$   +Nm5 #Nr   4Be  odb>         ",
"odBx             +Nb>  .aBe .aBBBBBBBBe     *pBBe  odb>         ",
".aBc$            +Nb>  .aBe odc$         .1Nk<4Be  odb>         ",
" :Bb>            +Nb>  .aBe .ab>     @6 Odb,  4Be  odb>         ",
" odBf        .8  +Nb>  .aBe  4Bf     25.am5   4Be  odb>         ",
"  #NBr      .0>  +Nb>  .aBe  #BBh%  =j$odm5   4Be  odm5         ",
"   +NBh<  .*u,   ;Bm5  OdBf   :BBBBBm5  4Bx$.2NBf+6.aBe.9$      ",
"    .1lBBBk7$  .aBBBBx:BBBBb>  =MBBk,   .aBBg%:Bv7  +NBh$       ",
"                                                                ",
"                                                                ",
"                                                                ",
"                                                                ",
"                                                                ",
"                                                                ",
"                                                                ",
"                                                                ",
"                                                                ",
"                                                                ",
"                                                                ",
"                                                                ",
"                                                                ",
"                                                                ",
"                                                                ",
"                                                                ",
"                                                                ",
"                                                                ",
"                                                                ",
"                                                                ",
"                                                                ",
"                                                                ",
"                                                                "
};
